<?xml version="1.0" standalone="no"?>
<!DOCTYPE svg PUBLIC "-//W3C//DTD SVG 20010904//EN"
 "http://www.w3.org/TR/2001/REC-SVG-20010904/DTD/svg10.dtd">
<svg version="1.0" xmlns="http://www.w3.org/2000/svg"
 width="1200.000000pt" height="1200.000000pt" viewBox="0 0 1200.000000 1200.000000"
 preserveAspectRatio="xMidYMid meet">
<metadata>
Created by potrace 1.11, written by Peter Selinger 2001-2013
</metadata>
<g transform="translate(0.000000,1200.000000) scale(0.100000,-0.100000)"
fill="#000000" stroke="none">
<path d="M0 6000 l0 -6000 6000 0 6000 0 0 6000 0 6000 -6000 0 -6000 0 0
-6000z m3400 2555 l0 -1486 122 127 c390 403 868 594 1488 594 369 0 674 -69
960 -216 377 -194 668 -507 885 -949 130 -264 198 -467 260 -780 70 -351 89
-604 82 -1089 -6 -451 -32 -681 -117 -1016 -160 -632 -504 -1163 -949 -1462
-248 -166 -509 -263 -821 -304 -168 -22 -553 -14 -715 14 -353 63 -632 182
-880 377 -79 62 -257 238 -308 305 -14 19 -28 32 -30 30 -2 -3 -14 -131 -26
-285 -12 -154 -25 -297 -28 -317 l-6 -38 -438 0 -439 0 0 3990 0 3990 480 0
480 0 0 -1485z m5758 1160 c189 -45 328 -183 378 -376 22 -84 22 -234 0 -318
-48 -186 -186 -323 -367 -366 -84 -19 -284 -19 -367 0 -182 43 -312 170 -368
360 -26 89 -24 249 4 340 58 189 188 316 369 359 78 19 272 20 351 1z m302
-4845 l0 -2810 -485 0 -485 0 0 2810 0 2810 485 0 485 0 0 -2810z"/>
<path d="M4530 6956 c-471 -68 -817 -311 -1065 -746 l-65 -114 0 -1226 0
-1226 51 -89 c244 -427 571 -672 1014 -762 71 -14 138 -18 310 -18 237 0 310
10 465 61 433 145 749 532 890 1093 136 541 145 1305 20 1826 -41 171 -83 292
-151 435 -201 419 -496 663 -907 750 -127 28 -423 36 -562 16z"/>
</g>
</svg>
